<svg width="41" height="41" viewBox="0 0 41 41" fill="none" xmlns="http://www.w3.org/2000/svg">
<path fill-rule="evenodd" clip-rule="evenodd" d="M7.53711 4.3698C10.2517 2.19403 13.5317 0.694571 17.1217 0.126961C17.5962 1.15838 18.6387 1.87445 19.8485 1.87445C21.1073 1.87445 22.185 1.09915 22.6302 2.10239e-06C26.2522 0.401095 29.5896 1.74581 32.3912 3.78282C31.8003 4.91394 31.9798 6.34284 32.93 7.29299C33.9048 8.26785 35.3837 8.43153 36.5278 7.78404C38.6707 10.5338 40.1279 13.844 40.6426 17.458C39.3264 17.7754 38.3485 18.9607 38.3485 20.3745C38.3485 21.7882 39.3264 22.9735 40.6426 23.2909C40.1279 26.9049 38.6707 30.2151 36.5278 32.9649C35.3837 32.3174 33.9048 32.4811 32.93 33.4559C31.9798 34.4061 31.8003 35.835 32.3912 36.9661C29.5896 39.0031 26.2522 40.3478 22.6302 40.7489C22.185 39.6498 21.1073 38.8745 19.8485 38.8745C18.6387 38.8745 17.5962 39.5905 17.1217 40.6219C13.5317 40.0543 10.2517 38.5549 7.53712 36.3791C7.81546 35.3718 7.55877 34.2477 6.76704 33.4559C5.99973 32.6886 4.92018 32.4239 3.93739 32.6616C1.84207 29.8675 0.443643 26.5208 1.32851e-05 22.8793C0.812505 22.3426 1.34851 21.4211 1.34851 20.3745C1.34851 19.3278 0.812504 18.4063 1.32329e-05 17.8696C0.443643 14.2281 1.84207 10.8814 3.93738 8.08727C4.92018 8.32505 5.99973 8.06028 6.76704 7.29297C7.55877 6.50125 7.81546 5.37709 7.53711 4.3698ZM12.5685 9.59445L14.2485 11.2744V18.3864L12.5685 20.0665L14.2485 21.7745V29.1945L12.5685 30.8745H8.17251L6.49251 29.1945V24.9944H9.18051V28.0745L9.74051 28.6345H11.0005L11.5605 28.0745V21.8025L11.0005 21.2425H8.62051V18.8904H11.0005L11.5605 18.3305V12.3945L11.0005 11.8345H9.71251L9.15251 12.3945V15.4745H6.46451V11.2744L8.14451 9.59445H12.5685ZM20.916 15.4745V12.4504L20.356 11.8904H19.124L18.564 12.4504V19.5345L19.572 18.5265H21.98L23.66 20.2064V29.1945L21.98 30.8745H17.556L15.876 29.1945V11.2744L17.556 9.59445H21.924L23.604 11.2744V15.4745H20.916ZM20.972 21.3825L20.412 20.8225H19.124L18.564 21.3825V28.0184L19.124 28.5785H20.412L20.972 28.0184V21.3825ZM31.3036 9.59445L32.9836 11.2744V29.1945L31.3036 30.8745H26.9076L25.2276 29.1945V11.2744L26.9076 9.59445H31.3036ZM30.2956 12.4504L29.7356 11.8904H28.4756L27.9156 12.4504V28.0184L28.4756 28.5785H29.7356L30.2956 28.0184V12.4504Z" fill="#C9FF57"/>
</svg>
