<svg width="28" height="41" viewBox="0 0 28 41" fill="none" xmlns="http://www.w3.org/2000/svg">
<path d="M7.18787 9.58952C7.38611 9.13416 7.60506 8.68218 7.84493 8.23541L7.89533 8.14213L7.92389 8.08991C8.34762 7.31711 8.81597 6.59442 9.32034 5.92535C11.2818 3.32383 13.7903 1.53323 16.3571 0.761136C16.3662 0.758376 16.3754 0.755616 16.3845 0.752875C18.817 0.0282938 21.3004 0.218587 23.4194 1.50035L23.4782 1.53625C28.4161 4.57972 29.4736 12.4509 25.8377 19.1317C22.6252 25.0345 15.9282 28.085 11.2035 26.6245L11.5862 26.041L9.3349 29.4739L3.26225 40.6322L0 38.6339L8.07584 23.7951C6.40723 21.7008 5.60475 18.7867 5.7496 15.6548C5.84144 13.6695 6.31389 11.5965 7.18787 9.58952ZM20.1378 4.46101V20.4114C21.0239 19.5637 21.8613 18.4829 22.5906 17.1429C25.6204 11.5756 24.0657 6.52893 21.5675 4.99885C21.1511 4.74375 20.668 4.56164 20.1378 4.46101ZM18.2544 21.8406V4.43492C17.0466 4.60964 15.7396 5.14169 14.4874 6.09777V22.9031C15.6493 22.9242 16.9593 22.5938 18.2544 21.8406ZM10.7541 20.8795C11.0332 21.2915 11.3472 21.6441 11.6858 21.9282C11.8409 22.0584 12.0011 22.1743 12.1653 22.2748C12.2547 22.3296 12.3471 22.381 12.4423 22.4288C12.4877 22.4517 12.5338 22.4737 12.5805 22.4951L12.604 22.5057V7.93768C12.0849 8.57388 11.593 9.30291 11.1424 10.1309L11.114 10.1832L11.0718 10.2618C10.9595 10.4731 10.8536 10.6836 10.7541 10.8931C8.80477 14.9996 9.30634 18.741 10.7541 20.8795Z" fill="url(#paint0_linear_1_1000)"/>
<defs>
<linearGradient id="paint0_linear_1_1000" x1="14" y1="0.332855" x2="14" y2="40.6322" gradientUnits="userSpaceOnUse">
<stop stop-color="#B74534"/>
<stop offset="1" stop-color="#C95D4D"/>
</linearGradient>
</defs>
</svg>
