<svg width="37" height="41" viewBox="0 0 37 41" fill="none" xmlns="http://www.w3.org/2000/svg">
<path d="M16.3743 10.0108C16.5708 9.56711 16.7878 9.12671 17.0255 8.69138L17.0754 8.60049L17.1037 8.5496C17.5237 7.7966 17.9878 7.09242 18.4877 6.44048C20.4316 3.90559 22.9175 2.16084 25.4614 1.40852C25.4704 1.40583 25.4795 1.40314 25.4886 1.40047C27.8992 0.694449 30.3604 0.879869 32.4604 2.1288L32.5187 2.16379C37.4123 5.12931 38.4603 12.7989 34.857 19.3086C31.6733 25.0603 25.9224 27.9847 21.24 26.5616L27.7503 38.3165L24.5235 40.2584L18.5021 29.3859L12.4839 40.2584L9.25085 38.3114L17.2543 23.8526C15.6007 21.8119 14.8054 18.9725 14.9489 15.9208C15.0399 13.9863 15.5082 11.9664 16.3743 10.0108ZM29.2082 5.01365V20.5555C30.0864 19.7295 30.9163 18.6764 31.639 17.3708C34.6417 11.9461 33.1009 7.02861 30.6251 5.53771C30.2124 5.28915 29.7336 5.1117 29.2082 5.01365ZM27.3417 21.9481V4.98822C26.1447 5.15847 24.8494 5.67689 23.6085 6.60849V22.9834C24.7599 23.004 26.0582 22.682 27.3417 21.9481ZM19.9086 21.0116C20.1852 21.4131 20.4963 21.7567 20.8319 22.0335C20.9856 22.1604 21.1444 22.2733 21.3072 22.3712C21.3958 22.4246 21.4873 22.4747 21.5817 22.5212C21.6266 22.5436 21.6723 22.565 21.7186 22.5858L21.7419 22.5962V8.40127C21.2274 9.02118 20.74 9.73155 20.2934 10.5383L20.2653 10.5893L20.2235 10.6659C20.1121 10.8718 20.0072 11.0768 19.9086 11.281C17.9767 15.2823 18.4738 18.9279 19.9086 21.0116Z" fill="url(#paint0_linear_1_985)"/>
<path d="M13.731 6.89282C12.3834 5.78015 10.9519 5.17378 9.63951 4.98716V21.8863C10.5633 22.4146 11.4947 22.7292 12.3732 22.8556C12.5278 23.242 12.6984 23.6207 12.8852 23.991L11.4075 26.6608C7.89212 25.9506 4.37874 23.3076 2.13874 19.2628C-1.46231 12.7608 -0.408767 5.09868 4.49188 2.1491C7.89968 0.09804 12.2704 0.865813 15.8279 3.71023C15.1047 4.61389 14.4517 5.58599 13.884 6.61149C13.8323 6.70493 13.7813 6.7987 13.731 6.89282ZM5.35711 17.326C6.07664 18.6251 6.90262 19.6734 7.77657 20.4958V5.01286C7.25383 5.11058 6.7774 5.28718 6.36673 5.53435C3.90019 7.01889 2.3622 11.9182 5.35711 17.326Z" fill="url(#paint1_linear_1_985)"/>
<defs>
<linearGradient id="paint0_linear_1_985" x1="23.1254" y1="0.991211" x2="23.1254" y2="40.2584" gradientUnits="userSpaceOnUse">
<stop stop-color="#B74534"/>
<stop offset="1" stop-color="#C95D4D"/>
</linearGradient>
<linearGradient id="paint1_linear_1_985" x1="7.91393" y1="0.991211" x2="7.91393" y2="26.6608" gradientUnits="userSpaceOnUse">
<stop stop-color="#B74534"/>
<stop offset="1" stop-color="#C95D4D"/>
</linearGradient>
</defs>
</svg>
