<svg width="52" height="54" viewBox="0 0 52 54" fill="none" xmlns="http://www.w3.org/2000/svg">
<path d="M25.3473 27.66L9.98188 25.8825L25.3473 24.1049L27.1227 8.71954L28.898 24.1049L44.264 25.8825L28.898 27.66L27.1227 43.0448L25.3473 27.66Z" fill="#211E1F"/>
<path d="M27.1227 9.8143L28.7845 24.2179L43.1701 25.8819L28.7845 27.5459L27.1227 41.9495L25.4608 27.5459L11.0753 25.8813L25.4608 24.2174L27.1227 9.8143ZM27.1227 7.62479L25.2338 23.9913L8.88794 25.8825L25.2333 27.7737L27.1221 44.1402L29.0104 27.7737L45.3563 25.8825L29.0104 23.9913L27.1227 7.62479Z" fill="white"/>
<path d="M27.1064 38.8791C25.0136 38.8791 22.9398 38.3664 21.0386 37.3561C17.9776 35.7291 15.7333 33.0057 14.7176 29.6884C13.7025 26.3705 14.0384 22.8557 15.6634 19.7914C19.0179 13.4646 26.8879 11.0507 33.2067 14.4099C39.5249 17.7692 41.9364 25.6485 38.5813 31.9753C36.9564 35.0401 34.2363 37.2873 30.9232 38.3043C29.6677 38.6893 28.3832 38.8802 27.1064 38.8802V38.8791ZM27.1439 13.2709C22.629 13.2709 18.2571 15.7045 15.9966 19.9677C14.4186 22.9435 14.0927 26.3565 15.0782 29.5775C16.0642 32.7991 18.2437 35.4431 21.2158 37.0231C24.188 38.6031 27.5967 38.93 30.8136 37.9427C34.0312 36.9554 36.6718 34.7732 38.2499 31.7973C39.8279 28.8214 40.1538 25.4084 39.1683 22.1874C38.1828 18.9658 36.0027 16.3218 33.0312 14.7418C31.1541 13.7439 29.1345 13.2709 27.1439 13.2709Z" fill="#211E1F"/>
<path d="M30.0871 8H28.773L25.8796 2.03448L24.8191 8H23.505L24.9229 0H26.237L29.1419 5.95402L30.1909 0H31.505L30.0871 8Z" fill="black"/>
<path d="M26.5991 54C26.0149 54 25.4901 53.9156 25.0247 53.7468C24.5592 53.5696 24.1895 53.3165 23.9157 52.9873C23.6419 52.6498 23.505 52.2532 23.505 51.7975C23.505 51.7384 23.5141 51.6329 23.5324 51.481H25.0794C25.0429 51.8692 25.1661 52.1941 25.4491 52.4557C25.732 52.7089 26.1382 52.8354 26.6675 52.8354C27.2334 52.8354 27.6761 52.73 27.9955 52.519C28.315 52.2996 28.4747 51.9873 28.4747 51.5823C28.4747 51.3376 28.3925 51.1308 28.2283 50.962C28.0731 50.7848 27.8723 50.6371 27.6259 50.519C27.3886 50.4008 27.0554 50.2616 26.6265 50.1013C26.0606 49.8819 25.6088 49.6835 25.2711 49.5063C24.9334 49.3291 24.6413 49.0844 24.3949 48.7722C24.1576 48.4599 24.0389 48.0675 24.0389 47.5949C24.0389 47.0717 24.185 46.616 24.477 46.2278C24.7691 45.8312 25.1707 45.5274 25.6818 45.3165C26.2021 45.1055 26.7862 45 27.4342 45C28.0822 45 28.639 45.1013 29.1045 45.3038C29.5791 45.4979 29.935 45.7764 30.1723 46.1392C30.4188 46.4937 30.5283 46.9114 30.5009 47.3924H28.858C28.8945 47.0464 28.7804 46.7595 28.5158 46.5316C28.2511 46.2954 27.8677 46.1772 27.3658 46.1772C26.8364 46.1772 26.412 46.2911 26.0925 46.519C25.7822 46.7384 25.627 47.038 25.627 47.4177C25.627 47.654 25.7046 47.8608 25.8598 48.038C26.0241 48.2068 26.2294 48.3544 26.4759 48.481C26.7223 48.5992 27.0554 48.7426 27.4753 48.9114C28.0412 49.1477 28.4929 49.3586 28.8306 49.5443C29.1775 49.73 29.4741 49.9831 29.7205 50.3038C29.967 50.616 30.0902 51.0042 30.0902 51.4684C30.0902 51.9578 29.9441 52.3966 29.6521 52.7848C29.36 53.1646 28.9493 53.4641 28.4199 53.6835C27.8906 53.8945 27.2836 54 26.5991 54Z" fill="black"/>
<path d="M10.505 23L7.17581 30H5.68513L5.21308 24.8294L2.92737 30H1.43668L0.505005 23H1.946L2.41805 28.6279L4.82799 23H6.30625L6.74103 28.6025L9.1137 23H10.505Z" fill="black"/>
<path d="M47.5563 23.023L47.0454 25.4483H50.359L50.1519 26.4598H46.8383L46.2999 28.977H50.0277L49.8068 30H44.505L46.2032 22H51.505L51.2841 23.023H47.5563Z" fill="black"/>
</svg>
