<svg width="19" height="19" viewBox="0 0 19 19" fill="none" xmlns="http://www.w3.org/2000/svg">
<path d="M16.5951 3.7859L12.6735 3.80028L12.6673 2.11279C12.6667 1.96361 12.6069 1.82075 12.5011 1.71565C12.3952 1.61055 12.2519 1.55181 12.1027 1.55236L7.60275 1.56886C7.45357 1.56941 7.31071 1.62919 7.20561 1.73507C7.10051 1.84094 7.04177 1.98423 7.04232 2.13342L7.04851 3.82091L3.12685 3.83528L3.11619 5.24158L4.27634 5.23733L5.0231 16.2737C5.04202 16.5591 5.16894 16.8266 5.37806 17.0218C5.58717 17.2169 5.86276 17.3251 6.14879 17.3243L13.6722 17.2967C13.958 17.2956 14.2328 17.1858 14.4406 16.9894C14.6483 16.7931 14.7736 16.525 14.7908 16.2397L15.4559 5.19634L16.6161 5.19209L16.5951 3.7859ZM7.08975 15.0708L6.74035 6.07205L7.9005 6.0678L8.2499 15.0666L7.08975 15.0708ZM10.4647 15.0585L9.33974 15.0626L9.30674 6.06264L10.4317 6.05852L10.4647 15.0585ZM11.2672 3.80544L8.45475 3.81575L8.45114 2.83138C8.451 2.79409 8.46569 2.75826 8.49196 2.73179C8.51824 2.70533 8.55395 2.69038 8.59125 2.69024L11.1225 2.68096C11.1598 2.68082 11.1956 2.69551 11.2221 2.72178C11.2485 2.74806 11.2635 2.78377 11.2636 2.82107L11.2672 3.80544ZM12.7147 15.0502L11.5546 15.0545L11.838 6.05336L12.9981 6.04911L12.7147 15.0502Z" fill="url(#paint0_linear_1672_325)"/>
<defs>
<linearGradient id="paint0_linear_1672_325" x1="9.85274" y1="1.56061" x2="9.91048" y2="17.3105" gradientUnits="userSpaceOnUse">
<stop stop-color="#B74534"/>
<stop offset="1" stop-color="#C95D4D"/>
</linearGradient>
</defs>
</svg>
