<svg width="42" height="27" viewBox="0 0 42 27" fill="none" xmlns="http://www.w3.org/2000/svg">
<path d="M28.5272 0.147247H22.89C22.365 0.147247 21.8597 0.352573 21.4725 0.722159L15.0216 6.88193C15.015 6.88877 15.0084 6.90246 15.0019 6.9093C13.9125 7.977 13.9322 9.6812 14.8641 10.742C15.6975 11.6934 17.4497 11.9466 18.5456 10.9268C18.5522 10.92 18.5653 10.92 18.5719 10.9132L23.8153 5.90321C24.2419 5.4994 24.9112 5.52678 25.2984 5.97165C25.6922 6.41652 25.6594 7.10778 25.2328 7.51844L23.52 9.1542L33.075 17.244C33.2653 17.4083 33.4359 17.5862 33.5934 17.771V4.52753L30.0103 0.790601C29.6231 0.37995 29.085 0.147247 28.5272 0.147247ZM35.7 4.54121V19.8653C35.7 21.0768 36.6384 22.0555 37.8 22.0555H42V4.54121H35.7ZM0 22.0486H4.2C5.36156 22.0486 6.3 21.0699 6.3 19.8585V4.54121H0V22.0486ZM31.7559 18.9482L21.9581 10.6531L19.9894 12.5352C18.0403 14.39 15.0544 14.2121 13.3153 12.2341C11.55 10.2219 11.6878 7.10778 13.6041 5.27354L18.9722 0.147247H13.4728C12.915 0.147247 12.3834 0.37995 11.9897 0.790601L8.4 4.52753V19.8517H9.60094L15.54 25.457C17.3381 26.9833 19.9828 26.6958 21.4462 24.8205L21.4594 24.8069L22.6341 25.8677C23.6775 26.7574 25.2197 26.5863 26.0662 25.4981L28.1269 22.8563L28.4812 23.1574C29.3803 23.9171 30.7059 23.7802 31.4344 22.8357L32.0578 22.035C32.7928 21.0905 32.655 19.7148 31.7559 18.9482Z" fill="url(#paint0_linear_1_980)"/>
<defs>
<linearGradient id="paint0_linear_1_980" x1="21" y1="0.147247" x2="21" y2="26.4385" gradientUnits="userSpaceOnUse">
<stop stop-color="#B74534"/>
<stop offset="1" stop-color="#C95D4D"/>
</linearGradient>
</defs>
</svg>
