<svg width="33" height="33" viewBox="0 0 33 33" fill="none" xmlns="http://www.w3.org/2000/svg">
<circle cx="16.5896" cy="16.0961" r="16" transform="rotate(-0.210074 16.5896 16.0961)" fill="url(#paint0_linear_1672_320)"/>
<path d="M15.1672 20.4171C15.1816 19.0697 15.3378 18.0866 15.6358 17.468C15.9338 16.8494 16.4979 16.1736 17.3281 15.4407C18.1391 14.7266 18.7613 14.0647 19.1949 13.4549C19.6286 12.8451 19.8441 12.1941 19.8415 11.5017C19.8385 10.6596 19.5453 9.95887 18.9622 9.3996C18.379 8.84033 17.5644 8.56262 16.5184 8.56645C15.5112 8.57015 14.7374 8.84901 14.197 9.40304C13.6567 9.95707 13.2617 10.534 13.0121 11.1337L10.5676 10.1041C10.9897 8.99842 11.7078 8.05543 12.7219 7.2751C13.736 6.49477 14.9985 6.10183 16.5094 6.09629C18.4464 6.08919 19.9398 6.60302 20.9896 7.63777C22.0394 8.67253 22.567 9.91972 22.5723 11.3794C22.5756 12.2776 22.3801 13.0924 21.9857 13.8236C21.5913 14.5549 20.9597 15.3245 20.091 16.1324C19.145 17.0154 18.5761 17.6911 18.3841 18.1597C18.1921 18.6282 18.0883 19.3771 18.0727 20.4064L15.1672 20.4171ZM16.5876 27.4295C16.0258 27.4315 15.5457 27.2415 15.1472 26.8593C14.7487 26.4772 14.5485 26.0147 14.5465 25.472C14.5445 24.9294 14.7413 24.4655 15.137 24.0804C15.5327 23.6953 16.0114 23.5017 16.5732 23.4997C17.1349 23.4976 17.615 23.6877 18.0135 24.0698C18.412 24.452 18.6123 24.9144 18.6143 25.4571C18.6162 25.9998 18.4194 26.4637 18.0237 26.8488C17.628 27.2339 17.1493 27.4274 16.5876 27.4295Z" fill="white"/>
<defs>
<linearGradient id="paint0_linear_1672_320" x1="16.5896" y1="0.0960751" x2="16.5896" y2="32.0961" gradientUnits="userSpaceOnUse">
<stop stop-color="#B74534"/>
<stop offset="1" stop-color="#C95D4D"/>
</linearGradient>
</defs>
</svg>
